<svg width="40" height="40" viewBox="0 0 40 40" fill="none" xmlns="http://www.w3.org/2000/svg">
<path d="M33.3333 10H26.6666V6.66671C26.6666 4.83337 25.1666 3.33337 23.3333 3.33337H16.6666C14.8333 3.33337 13.3333 4.83337 13.3333 6.66671V10H6.66659C4.83325 10 3.33325 11.5 3.33325 13.3334V33.3334C3.33325 35.1667 4.83325 36.6667 6.66659 36.6667H33.3333C35.1666 36.6667 36.6666 35.1667 36.6666 33.3334V13.3334C36.6666 11.5 35.1666 10 33.3333 10ZM16.6666 6.66671H23.3333V10H16.6666V6.66671ZM26.6666 25H21.6666V30H18.3333V25H13.3333V21.6667H18.3333V16.6667H21.6666V21.6667H26.6666V25Z" fill="#C69C52"/>
</svg>
