<svg width="70" height="80" viewBox="0 0 70 80" fill="none" xmlns="http://www.w3.org/2000/svg">
<path d="M65 40C65 41.6667 65.8333 45 67.5 50C69.1667 55 70 58.3333 70 60C70 63.3854 69.4922 66.5885 68.4766 69.6094C67.4609 72.6302 65.9766 75.1172 64.0234 77.0703C62.0703 79.0234 59.8958 80 57.5 80H22.5C21.8229 80 21.237 79.7526 20.7422 79.2578C20.2474 78.763 20 78.1771 20 77.5C20 76.8229 20.2474 76.237 20.7422 75.7422C21.237 75.2474 21.8229 75 22.5 75C23.2292 75 23.8281 74.7656 24.2969 74.2969C24.7656 73.8281 25 73.2292 25 72.5C25 71.1458 24.4792 69.5703 23.4375 67.7734C22.3958 65.9766 21.1458 64.1276 19.6875 62.2266C18.2292 60.3255 16.7708 58.3594 15.3125 56.3281C13.8542 54.2969 12.6042 52.0573 11.5625 49.6094C10.5208 47.1615 10 44.7917 10 42.5C10 38.5938 11.5625 35.3646 14.6875 32.8125C14.0625 30.9375 12.5 30 10 30C8.48958 30 6.91406 29.4661 5.27344 28.3984C3.63281 27.3307 2.34375 26.2109 1.40625 25.0391C0.46875 23.8672 0 23.0208 0 22.5C0 21.8229 0.247396 21.237 0.742188 20.7422C1.23698 20.2474 1.82292 20 2.5 20C2.91667 20 3.35938 19.6354 3.82812 18.9062C4.29688 18.1771 4.83073 17.2656 5.42969 16.1719C6.02865 15.0781 6.71875 13.9714 7.5 12.8516C8.28125 11.7318 9.32292 10.6901 10.625 9.72656C11.9271 8.76302 13.3854 8.09896 15 7.73438V0C16.1979 0 17.6042 0.924479 19.2188 2.77344C20.8333 4.6224 21.875 6.53646 22.3438 8.51562C24.8438 9.55729 26.7448 11.3672 28.0469 13.9453C29.349 16.5234 30 19.375 30 22.5C30 24.0104 30.3255 25.4427 30.9766 26.7969C31.6276 28.151 32.5521 29.362 33.75 30.4297C34.9479 31.4974 35.9245 32.3047 36.6797 32.8516C37.4349 33.3984 38.3854 34.0104 39.5312 34.6875C39.7396 34.8438 39.8958 34.9479 40 35C43.0208 36.7188 45.5208 38.3854 47.5 40C51.0938 42.9688 54.0755 46.6927 56.4453 51.1719C58.8151 55.651 60 59.4271 60 62.5C60 62.7083 60.026 62.9427 60.0781 63.2031C60.1302 63.4635 60.3646 63.8281 60.7812 64.2969C61.1979 64.7656 61.7708 65 62.5 65C63.2292 65 63.8281 64.5964 64.2969 63.7891C64.7656 62.9818 65 61.7188 65 60C65 58.1771 64.6615 56.3542 63.9844 54.5312C63.3073 52.7083 62.474 50.9766 61.4844 49.3359C60.4948 47.6953 59.5052 45.9896 58.5156 44.2188C57.526 42.4479 56.6927 40.3255 56.0156 37.8516C55.3385 35.3776 55 32.7604 55 30C55 27.5 56.0417 25.2083 58.125 23.125C60.2083 21.0417 62.5 20 65 20C66.4062 20 67.5911 20.4818 68.5547 21.4453C69.5182 22.4089 70 23.5938 70 25C70 25.8333 69.8438 26.5755 69.5312 27.2266C69.2188 27.8776 68.8151 28.4766 68.3203 29.0234C67.8255 29.5703 67.5521 29.8958 67.5 30C65.8333 32.7604 65 36.0938 65 40Z" fill="white"/>
</svg>
