<svg width="40" height="40" viewBox="0 0 40 40" fill="none" xmlns="http://www.w3.org/2000/svg">
<path d="M36.2382 20.5517L21.2382 3.88504C20.6066 3.18171 19.3932 3.18171 18.7616 3.88504L3.76156 20.5517C3.54565 20.791 3.40393 21.0879 3.35363 21.4063C3.30333 21.7247 3.34662 22.0508 3.47822 22.345C3.74489 22.9467 4.34156 23.3334 4.99989 23.3334H8.33322V35C8.33322 35.4421 8.50882 35.866 8.82138 36.1786C9.13394 36.4911 9.55786 36.6667 9.99989 36.6667H29.9999C30.4419 36.6667 30.8658 36.4911 31.1784 36.1786C31.491 35.866 31.6666 35.4421 31.6666 35V23.3334H34.9999C35.3227 23.3348 35.6389 23.2422 35.91 23.067C36.181 22.8917 36.3953 22.6414 36.5265 22.3465C36.6578 22.0517 36.7005 21.7249 36.6493 21.4063C36.5981 21.0876 36.4552 20.7906 36.2382 20.5517ZM26.6666 25H21.6666V30H18.3332V25H13.3332V21.6667H18.3332V16.6667H21.6666V21.6667H26.6666V25Z" fill="#C69C52"/>
</svg>
