<svg width="40" height="40" viewBox="0 0 40 40" fill="none" xmlns="http://www.w3.org/2000/svg">
<path d="M36.125 15.0625C35.2465 12.9832 33.973 11.0942 32.375 9.5C30.7808 7.90199 28.8918 6.62845 26.8125 5.75C24.6523 4.83594 22.3633 4.375 20 4.375C17.6367 4.375 15.3477 4.83594 13.1875 5.75C11.1082 6.62845 9.21917 7.90199 7.625 9.5C6.02699 11.0942 4.75345 12.9832 3.875 15.0625C2.96094 17.2227 2.5 19.5117 2.5 21.875C2.5 27.0586 4.77734 31.9414 8.74609 35.2773L8.8125 35.332C9.03906 35.5195 9.32422 35.625 9.61719 35.625H30.3867C30.6797 35.625 30.9648 35.5195 31.1914 35.332L31.2578 35.2773C35.2227 31.9414 37.5 27.0586 37.5 21.875C37.5 19.5117 37.0352 17.2227 36.125 15.0625ZM18.8281 9.0625C18.8281 8.89062 18.9688 8.75 19.1406 8.75H20.8594C21.0312 8.75 21.1719 8.89062 21.1719 9.0625V12.1875C21.1719 12.3594 21.0312 12.5 20.8594 12.5H19.1406C18.9688 12.5 18.8281 12.3594 18.8281 12.1875V9.0625ZM10.5469 22.7344C10.5469 22.9062 10.4062 23.0469 10.2344 23.0469H7.10938C6.9375 23.0469 6.79688 22.9062 6.79688 22.7344V21.0156C6.79688 20.8438 6.9375 20.7031 7.10938 20.7031H10.2344C10.4062 20.7031 10.5469 20.8438 10.5469 21.0156V22.7344ZM14.0898 14.7461L12.875 15.9609C12.8163 16.0191 12.737 16.0517 12.6543 16.0517C12.5716 16.0517 12.4923 16.0191 12.4336 15.9609L10.2227 13.75C10.1645 13.6913 10.1319 13.612 10.1319 13.5293C10.1319 13.4466 10.1645 13.3673 10.2227 13.3086L11.4375 12.0938C11.5586 11.9727 11.7578 11.9727 11.8789 12.0938L14.0898 14.3047C14.2109 14.4258 14.2109 14.625 14.0898 14.7461ZM25.4609 18.0117L22.1602 21.3125C22.3555 22.043 22.168 22.8516 21.5938 23.4258C21.3907 23.6292 21.1496 23.7905 20.8842 23.9006C20.6188 24.0107 20.3342 24.0674 20.0469 24.0674C19.7595 24.0674 19.475 24.0107 19.2095 23.9006C18.9441 23.7905 18.703 23.6292 18.5 23.4258C18.2966 23.2228 18.1353 22.9817 18.0252 22.7162C17.9151 22.4508 17.8584 22.1663 17.8584 21.8789C17.8584 21.5915 17.9151 21.307 18.0252 21.0416C18.1353 20.7761 18.2966 20.535 18.5 20.332C18.7712 20.06 19.1095 19.8643 19.4805 19.7649C19.8516 19.6654 20.2423 19.6657 20.6133 19.7656L23.9141 16.4648C24.0352 16.3438 24.2344 16.3438 24.3555 16.4648L25.4609 17.5703C25.582 17.6914 25.582 17.8867 25.4609 18.0117ZM27.1406 15.9648L25.9258 14.75C25.8676 14.6913 25.835 14.612 25.835 14.5293C25.835 14.4466 25.8676 14.3673 25.9258 14.3086L28.1367 12.0977C28.2578 11.9766 28.457 11.9766 28.5781 12.0977L29.793 13.3125C29.9141 13.4336 29.9141 13.6328 29.793 13.7539L27.582 15.9648C27.5233 16.023 27.444 16.0556 27.3613 16.0556C27.2787 16.0556 27.1994 16.023 27.1406 15.9648ZM33.0469 22.7344C33.0469 22.9062 32.9062 23.0469 32.7344 23.0469H29.6094C29.4375 23.0469 29.2969 22.9062 29.2969 22.7344V21.0156C29.2969 20.8438 29.4375 20.7031 29.6094 20.7031H32.7344C32.9062 20.7031 33.0469 20.8438 33.0469 21.0156V22.7344Z" fill="#C69C52"/>
</svg>
