<svg width="90" height="80" viewBox="0 0 90 80" fill="none" xmlns="http://www.w3.org/2000/svg">
<g clip-path="url(#clip0)">
<path d="M46.5719 35L70 43.3672V77.5C70 78.163 69.7366 78.7989 69.2678 79.2678C68.7989 79.7366 68.163 80 67.5 80H57.5C56.837 80 56.2011 79.7366 55.7322 79.2678C55.2634 78.7989 55 78.163 55 77.5V60H30V77.5C30 78.163 29.7366 78.7989 29.2678 79.2678C28.7989 79.7366 28.163 80 27.5 80H17.5C16.837 80 16.2011 79.7366 15.7322 79.2678C15.2634 78.7989 15 78.163 15 77.5V44.0766C9.19375 42.0062 5 36.5094 5 30C5 28.6739 5.52678 27.4021 6.46447 26.4645C7.40215 25.5268 8.67392 25 10 25C11.3261 25 12.5979 25.5268 13.5355 26.4645C14.4732 27.4021 15 28.6739 15 30C15.0025 31.3253 15.5301 32.5957 16.4672 33.5328C17.4043 34.4699 18.6747 34.9975 20 35H46.5719ZM85 17.5V22.5C85 25.1522 83.9464 27.6957 82.0711 29.5711C80.1957 31.4464 77.6522 32.5 75 32.5H70V38.0594L50 30.9172V7.5C50 5.27344 52.6906 4.15781 54.2672 5.73281L58.5297 10H66.9094C68.6141 10 70.6203 11.2375 71.3812 12.7641L72.5 15H82.5C83.163 15 83.7989 15.2634 84.2678 15.7322C84.7366 16.2011 85 16.837 85 17.5ZM67.5 17.5C67.5 17.0055 67.3534 16.5222 67.0787 16.1111C66.804 15.7 66.4135 15.3795 65.9567 15.1903C65.4999 15.0011 64.9972 14.9516 64.5123 15.048C64.0273 15.1445 63.5819 15.3826 63.2322 15.7322C62.8826 16.0819 62.6445 16.5273 62.548 17.0123C62.4516 17.4972 62.5011 17.9999 62.6903 18.4567C62.8795 18.9135 63.2 19.304 63.6111 19.5787C64.0222 19.8534 64.5055 20 65 20C65.663 20 66.2989 19.7366 66.7678 19.2678C67.2366 18.7989 67.5 18.163 67.5 17.5Z" fill="white"/>
</g>
<defs>
<clipPath id="clip0">
<rect width="90" height="80" fill="white"/>
</clipPath>
</defs>
</svg>
