<svg width="40" height="40" viewBox="0 0 40 40" fill="none" xmlns="http://www.w3.org/2000/svg">
<path d="M20 32.5C28.9766 32.5 36.25 25.2266 36.25 16.25C36.25 7.27344 28.9766 0 20 0C11.0234 0 3.75 7.27344 3.75 16.25C3.75 25.2266 11.0234 32.5 20 32.5ZM18.2656 7.60938V6.29688C18.2656 5.57812 18.8438 5 19.5625 5H20.4297C21.1484 5 21.7266 5.57812 21.7266 6.29688V7.625C22.9375 7.6875 24.1094 8.10156 25.0859 8.82812C25.5234 9.14844 25.5703 9.78906 25.1797 10.1641L23.9062 11.375C23.6094 11.6641 23.1641 11.6719 22.8125 11.4531C22.3906 11.1875 21.9219 11.0547 21.4219 11.0547H18.3828C17.6797 11.0547 17.1094 11.6953 17.1094 12.4844C17.1094 13.125 17.5 13.6953 18.0547 13.8594L22.9219 15.3203C24.9297 15.9219 26.3359 17.8516 26.3359 20.0156C26.3359 22.6719 24.2734 24.8203 21.7188 24.8906V26.2031C21.7188 26.9219 21.1406 27.5 20.4219 27.5H19.5547C18.8359 27.5 18.2578 26.9219 18.2578 26.2031V24.875C17.0469 24.8125 15.875 24.3984 14.8984 23.6719C14.4609 23.3516 14.4141 22.7109 14.8047 22.3359L16.0781 21.125C16.375 20.8359 16.8203 20.8281 17.1719 21.0469C17.5938 21.3125 18.0625 21.4453 18.5625 21.4453H21.6016C22.3047 21.4453 22.875 20.8047 22.875 20.0156C22.875 19.375 22.4844 18.8047 21.9297 18.6406L17.0625 17.1797C15.0547 16.5781 13.6484 14.6484 13.6484 12.4844C13.6562 9.82812 15.7109 7.67969 18.2656 7.60938ZM37.5 27.5H34.9609C33.4297 29.5312 31.4766 31.2266 29.2578 32.5H34.2422C34.6562 32.5 34.9922 32.7812 34.9922 33.125V34.375C34.9922 34.7188 34.6562 35 34.2422 35H5.75C5.33594 35 5 34.7188 5 34.375V33.125C5 32.7812 5.33594 32.5 5.75 32.5H10.7344C8.51562 31.2266 6.57031 29.5312 5.03125 27.5H2.5C1.11719 27.5 0 28.6172 0 30V37.5C0 38.8828 1.11719 40 2.5 40H37.5C38.8828 40 40 38.8828 40 37.5V30C40 28.6172 38.8828 27.5 37.5 27.5Z" fill="#C69C52"/>
</svg>
