<svg width="40" height="40" viewBox="0 0 40 40" fill="none" xmlns="http://www.w3.org/2000/svg">
<path d="M29.5433 21.7L23.3333 26.6667H14.9999V25H21.7749C21.9257 24.9999 22.0735 24.959 22.2028 24.8815C22.3321 24.804 22.438 24.6929 22.5092 24.56C22.5803 24.4271 22.6141 24.2774 22.6069 24.1268C22.5997 23.9763 22.5518 23.8305 22.4683 23.705L20.9883 21.485C20.6846 21.028 20.2727 20.6533 19.7891 20.3942C19.3054 20.135 18.7652 19.9996 18.2166 20H4.99992C4.55789 20 4.13397 20.1756 3.82141 20.4882C3.50885 20.8007 3.33325 21.2246 3.33325 21.6667V31.6667C3.33325 32.5507 3.68444 33.3986 4.30956 34.0237C4.93468 34.6488 5.78253 35 6.66659 35H22.7316C23.4443 35.0002 24.1488 34.848 24.7978 34.5536C25.4469 34.2593 26.0255 33.8296 26.4949 33.2933L36.6666 21.6667L34.2466 20.86C33.4548 20.5961 32.6096 20.5347 31.788 20.6814C30.9664 20.8282 30.1947 21.1783 29.5433 21.7ZM32.0966 12.3167C32.8483 11.5417 33.3133 10.47 33.3133 9.28667C33.3133 8.10333 32.8483 7.03167 32.0966 6.25667C31.7165 5.85996 31.2601 5.54416 30.7549 5.32821C30.2497 5.11227 29.706 5.00063 29.1566 5C29.1566 5 27.0833 4.995 24.9999 7.14333C22.9166 4.995 20.8433 5 20.8433 5C20.294 5.0007 19.7505 5.11221 19.2453 5.32785C18.7402 5.54349 18.2837 5.85883 17.9033 6.255C17.1516 7.03167 16.6866 8.10167 16.6866 9.285C16.6866 10.4683 17.1516 11.5417 17.9033 12.315L24.9999 20L32.0966 12.3167Z" fill="#C69C52"/>
</svg>
